<svg width="233" height="70" viewBox="0 0 233 70" fill="none" xmlns="http://www.w3.org/2000/svg">
<path fill-rule="evenodd" clip-rule="evenodd" d="M45.9801 0.560812C49.893 2.00272 53.21 6.033 54.0417 10.439C54.349 12.0671 53.2783 13.636 51.6502 13.9434C50.0221 14.2507 48.4531 13.1799 48.1458 11.5518C47.6776 9.07143 45.7026 6.85296 43.9055 6.19071C43.105 5.89573 42.5678 5.9796 42.1876 6.19153C41.7705 6.42398 41.0067 7.11182 40.4067 9.0691C39.7305 11.2751 39.8813 15.5156 42.4425 21.4361C44.1974 25.493 47.0281 30.1968 51.27 35.3281C51.3077 35.298 51.3454 35.268 51.3831 35.2379C56.7234 30.9834 62.7064 26.5277 67.9329 22.6355C68.2871 22.3717 68.6378 22.1105 68.9846 21.8522C69.0155 21.8292 69.0468 21.8068 69.0785 21.785C69.4658 21.519 69.8829 21.225 70.3134 20.9215C71.2713 20.2461 72.2954 19.5242 73.2035 18.9618C73.8916 18.5356 74.6425 18.1159 75.4083 17.8056C76.1479 17.506 77.1144 17.2193 78.1736 17.2773C79.3539 17.342 80.5075 17.8327 81.3825 18.8318C82.1722 19.7335 82.5523 20.8408 82.7481 21.8658C83.1319 23.8749 83.0016 26.6583 82.4782 30.2657C82.3493 31.327 82.2174 32.384 82.0852 33.4436C81.4486 38.5457 80.8047 43.7066 80.4566 49.6823C80.3843 50.9241 80.3743 52.0367 80.4534 52.9193C80.5131 52.8708 80.5752 52.8193 80.6397 52.7646C82.0214 51.5931 84.0054 49.4006 86.7462 45.6863C93.0487 37.145 104.047 23.4703 122.254 13.4671C124.039 12.4865 125.985 11.7365 127.887 11.548C129.818 11.3567 132.012 11.7346 133.677 13.4216C135.287 15.0529 135.856 17.3651 135.835 19.83C135.814 22.3158 135.199 25.3628 133.978 29.0146C133.132 31.6739 131.887 35.9812 130.912 40.2318C130.83 40.5896 130.75 40.9438 130.674 41.2937C134.281 38.1715 139.101 35.2547 144.991 34.0748C147.775 33.4601 152.331 33.2692 155.647 35.9055C159.398 38.8874 160.115 44.1534 157.738 51.2286C157.715 51.2964 157.69 51.3634 157.662 51.4294C157.211 52.5107 157.068 53.3865 157.118 53.8653C157.119 53.8697 157.119 53.8741 157.12 53.8783C157.593 53.9812 158.912 54.0063 161.64 53.0385C164.436 52.0463 168.313 50.1574 173.571 46.9473C174.986 46.084 176.832 46.5306 177.695 47.9448C178.558 49.359 178.112 51.2052 176.698 52.0685C171.26 55.3877 166.988 57.5074 163.646 58.6932C160.412 59.8404 157.59 60.2835 155.322 59.607C154.103 59.2432 153.057 58.5561 152.305 57.5518C151.574 56.5762 151.255 55.4824 151.151 54.4901C150.956 52.6303 151.47 50.7197 152.082 49.2232C154.115 43.1107 152.677 41.2091 151.913 40.6022C150.725 39.6575 148.434 39.4539 146.263 39.9384C146.241 39.9434 146.218 39.9482 146.196 39.9527C137.088 41.7656 130.94 48.981 129.098 52.2541C128.453 53.4007 127.137 53.9932 125.851 53.7156C124.565 53.4379 123.61 52.3548 123.495 51.0443C123.225 47.9546 124.076 43.1954 125.064 38.8901C126.085 34.4374 127.381 29.9567 128.268 27.1732C128.272 27.1591 128.277 27.145 128.281 27.131C129.404 23.7786 129.822 21.3938 129.835 19.7799C129.849 18.14 129.451 17.6818 129.406 17.6361C129.385 17.6143 129.35 17.5827 129.242 17.5519C129.114 17.5157 128.872 17.4798 128.479 17.5188C127.663 17.5996 126.515 17.9719 125.143 18.7257C108.069 28.1062 97.6927 40.9567 91.5741 49.2487C88.7442 53.0839 86.4341 55.7182 84.5198 57.3411C83.5645 58.1511 82.5804 58.8197 81.5661 59.2201C80.5312 59.6286 79.2546 59.8331 77.9585 59.3567C76.6605 58.8795 75.8692 57.9129 75.4122 57.0516C74.9666 56.2118 74.7364 55.2935 74.6049 54.483C74.3414 52.8593 74.371 50.9774 74.4668 49.3335C74.8274 43.1426 75.4995 37.7591 76.1376 32.6489C76.2696 31.5917 76.4001 30.5462 76.5261 29.5077C76.529 29.484 76.5322 29.4604 76.5356 29.4368C76.9426 26.6416 77.0217 24.833 76.9436 23.7198C76.768 23.8175 76.5747 23.9313 76.3628 24.0626C75.6045 24.5323 74.8393 25.0724 73.9751 25.6825C73.5227 26.0019 73.0431 26.3404 72.5232 26.6979C72.1966 26.9413 71.8669 27.1868 71.5345 27.4344C66.3356 31.3061 60.4831 35.6647 55.2569 39.8231C56.0223 40.6311 56.822 41.4474 57.6571 42.2712C57.9526 42.5626 58.2786 42.875 58.6178 43.2001C59.4429 43.9909 60.3463 44.8565 61.0789 45.6783C62.1579 46.8885 63.2798 48.4279 63.7246 50.3677C64.6893 54.5748 62.1558 58.581 57.1623 62.981C57.1028 63.0334 57.0412 63.0835 56.9777 63.1311C56.8597 63.2194 56.738 63.3109 56.6127 63.405C54.6443 64.8838 51.7916 67.0268 48.6591 68.4386C45.317 69.9448 41.0553 70.8896 36.9075 68.7532C36.8837 68.7409 36.8601 68.7283 36.8366 68.7155C34.674 67.5273 32.7128 64.9419 32.5007 61.2063C32.2916 57.5243 33.7804 53.0351 37.7299 47.7189C37.7537 47.6868 37.7781 47.6553 37.8032 47.6242C39.7692 45.1874 42.9407 42.2368 46.6263 39.1275C42.0815 33.6261 38.9407 28.4534 36.9356 23.8183C34.0909 17.2423 33.4062 11.4339 34.6702 7.31058C35.5557 4.42189 37.0666 2.17666 39.2666 0.950542C41.5034 -0.296101 43.9256 -0.196294 45.9801 0.560812ZM50.5978 43.6279C47.0292 46.6337 44.1696 49.3017 42.51 51.3459C39.0635 56.0004 38.391 59.1047 38.491 60.8661C38.5857 62.5339 39.3686 63.2461 39.6994 63.4418C41.4845 64.3399 43.6151 64.1307 46.1937 62.9685C48.6985 61.8397 51.0674 60.0634 53.1226 58.5223C53.1764 58.482 53.2299 58.4418 53.2832 58.4019C58.0434 54.185 58.022 52.3437 57.8764 51.7087C57.7656 51.2255 57.4259 50.5971 56.6004 49.6712C56.0276 49.0287 55.4101 48.4378 54.6809 47.7399C54.3018 47.3772 53.8925 46.9855 53.4435 46.5427C52.4513 45.5639 51.5032 44.592 50.5978 43.6279Z" fill="#35434F"/>
<path fill-rule="evenodd" clip-rule="evenodd" d="M201.358 9.28615C202.958 9.71939 203.903 11.367 203.469 12.9662L191.585 56.8348C191.152 58.434 189.504 59.3792 187.905 58.946C186.306 58.5128 185.361 56.8652 185.794 55.2659L197.678 11.3973C198.111 9.79814 199.759 8.85292 201.358 9.28615Z" fill="#35434F"/>
<path fill-rule="evenodd" clip-rule="evenodd" d="M24.4838 17.0468C25.5083 18.3489 25.2832 20.235 23.981 21.2595L7.75328 34.0272L23.1284 46.9567C24.3965 48.0231 24.56 49.9155 23.4936 51.1836C22.4273 52.4517 20.5348 52.6152 19.2667 51.5488L1.06916 36.2458C0.37824 35.6648 -0.014307 34.8035 0.000398915 33.9009C0.0151046 32.9982 0.4355 32.1502 1.14499 31.592L20.271 16.5441C21.5732 15.5196 23.4593 15.7446 24.4838 17.0468Z" fill="#35434F"/>
<path fill-rule="evenodd" clip-rule="evenodd" d="M208.215 51.0191C207.191 49.717 207.416 47.8308 208.718 46.8063L224.946 34.0387L209.57 21.1092C208.302 20.0428 208.139 18.1504 209.205 16.8823C210.272 15.6142 212.164 15.4507 213.432 16.5171L231.63 31.8201C232.321 32.4011 232.713 33.2624 232.698 34.165C232.684 35.0676 232.263 35.9157 231.554 36.4739L212.428 51.5218C211.126 52.5463 209.24 52.3212 208.215 51.0191Z" fill="#35434F"/>
</svg>
