<svg width="195" height="189" viewBox="0 0 195 189" fill="none" xmlns="http://www.w3.org/2000/svg">
<path d="M112.506 63.8602C107.327 60.9323 102.548 59.0113 94.8085 56.7105C80.6411 52.494 69.4322 51.9262 60.8164 54.972C56.3408 56.5553 52.4914 59.208 49.0498 63.0994C48.0266 64.264 45.2418 68.4017 44.4084 69.9954C41.6732 75.2815 39.5944 81.3257 37.5301 89.926C36.6386 93.6504 36.1018 96.1369 34.6316 103.299C31.4646 118.826 29.8875 125.103 27.4293 132.022C25.3096 137.993 23.2103 142.246 20.1496 146.816C19.1376 148.319 18.3416 149.546 18.3659 149.532C18.4004 149.526 18.845 149.132 19.366 148.669C24.99 143.579 29.0017 137.374 32.4309 128.457C34.7758 122.351 36.37 116.538 39.4476 102.743C42.5928 88.6927 44.2094 83.0908 46.7508 77.4483C48.1125 74.4472 48.8504 73.1509 50.6501 70.6103C53.1822 67.0258 55.1387 65.1634 58.4929 63.202C63.0148 60.55 68.3561 59.4137 74.9142 59.7142C77.2657 59.8202 81.9446 60.4682 84.565 61.0415C91.1624 62.4834 99.398 65.269 104.8 67.865C107.82 69.3103 111.483 71.6245 113.545 73.3594C118.082 77.1964 120.768 81.7613 121.323 86.5802C121.789 90.5999 120.934 94.8916 118.76 99.4553C112.921 111.708 96.8126 125.065 78.9431 132.46C77.9222 132.888 74.8846 134.068 72.2104 135.085C61.9356 139.018 58.9487 140.323 55.241 142.498C52.5557 144.066 50.2754 145.876 48.1959 148.033C47.5247 148.741 46.9042 149.574 45.5083 151.648C43.5786 154.493 42.8613 155.803 41.684 158.597C41.3851 159.33 41.1218 159.921 41.1115 159.914C41.1012 159.907 40.9206 159.62 40.7095 159.267C40.2907 158.578 39.4543 157.91 39.2081 158.076C39.1386 158.134 38.9235 158.743 38.7594 159.431C38.3645 160.973 37.9208 161.699 37.044 162.224C35.3806 163.229 32.3615 162.915 28.8485 161.379C28.2125 161.102 26.9042 160.357 25.7407 159.619C23.8221 158.403 23.7192 158.334 23.8448 158.147C24.124 157.732 33.3881 148.523 38.7056 143.378C52.1664 130.334 62.281 121.306 71.0539 114.493L73.9272 112.268L74.5937 112.611C81.316 116.156 87.2398 116.844 91.0933 114.54C92.4621 113.729 93.1539 113.034 94.2185 111.43C96.4905 108.032 97.3607 103.495 96.1559 101.419C95.7238 100.661 94.6739 99.954 93.6752 99.749C91.2302 99.2485 87.2471 100.033 82.4099 101.976C80.6868 102.669 77.194 104.281 76.2136 104.827L75.7113 105.107L74.0386 104.192C73.077 103.665 71.0897 102.418 69.3501 101.247L66.3341 99.2172L66.7107 97.8133C68.3261 91.9243 67.0581 87.7861 62.8802 85.2605C61.4212 84.384 60.4963 84.0026 58.5482 83.4749C55.8635 82.7528 53.7747 82.5674 52.3234 82.9015C51.2246 83.1564 50.7741 83.4258 50.2892 84.124C49.2738 85.6104 49.7992 88.1186 51.8789 91.673C53.3731 94.2306 56.0165 97.5918 58.8427 100.504L59.5681 101.248L59.1485 102.427C57.7334 106.507 55.4863 110.69 51.5848 116.487C46.9993 123.3 41.0328 130.721 32.7029 139.986C29.2373 143.846 19.6931 154.027 19.5204 154.061C19.3822 154.089 18.6085 152.905 18.2355 152.082C17.4657 150.403 17.3718 148.743 17.9844 147.588C18.1629 147.256 18.2962 146.969 18.2859 146.962C18.2756 146.955 17.8695 146.848 17.3876 146.719C15.3259 146.16 13.7422 146.225 13.0956 146.874C12.8174 147.154 12.74 147.358 12.6766 147.963L12.5846 148.7L11.8876 149.18C10.3028 150.268 8.83432 151.917 8.25115 153.272C8.08957 153.645 7.60221 154.658 7.14713 155.512C5.44514 158.797 3.88931 162.797 3.70061 164.433C3.67495 164.627 3.37097 165.567 3.02912 166.497C1.2274 171.508 0.647245 175.125 1.17572 178.118C2.21313 183.954 7.5277 187.124 17.9502 188.127C22.3068 188.543 22.8661 188.467 24.3031 187.31C27.3264 184.885 30.3019 180.619 30.9724 177.801C31.1294 177.123 31.1434 177.102 31.8275 176.508C33.5397 175.009 35.3258 172.444 36.3275 170.044L36.8229 168.886L37.6178 168.683C38.0533 168.569 38.6799 168.283 39.0267 168.034C40.3275 167.101 41.3687 164.954 41.4705 162.958L41.5117 162.097L43.29 159.211C47.7445 151.948 51.5379 148.067 56.8886 145.295C59.9327 143.728 62.5723 142.717 72.8437 139.233C80.6977 136.564 81.7215 136.198 84.521 135.039C96.0441 130.273 106.581 123.307 114.345 115.348C117.349 112.262 118.763 110.517 121.167 106.967C123.387 103.669 123.845 102.878 125.172 99.9285C129.957 89.2416 128.684 79.0434 121.586 71.1467C119.695 69.0452 118.16 67.7259 115.439 65.8346C114.125 64.9202 112.808 64.0334 112.506 63.8602ZM89.6737 105.539C89.6138 105.694 89.3725 106.12 89.1212 106.493C87.9766 108.194 85.8524 108.572 82.2826 107.676C81.7834 107.551 81.3842 107.433 81.3776 107.399C81.3577 107.295 83.463 106.256 84.6948 105.759C86.6531 104.982 88.8938 104.698 89.5905 105.151C89.6831 105.214 89.7163 105.387 89.6737 105.539ZM58.6507 90.6558C58.9445 91.0192 59.3431 91.6492 59.5296 92.061C59.8993 92.8672 60.3441 94.2063 60.2335 94.2373C60.1298 94.258 58.7338 92.8211 57.9786 91.9211C57.1961 90.9726 56.3547 89.6227 56.4524 89.4776C56.4873 89.4257 56.753 89.4087 57.046 89.4401C57.6146 89.5064 57.8032 89.6484 58.6507 90.6558ZM67.8284 108.375L68.7747 109.102L66.9922 110.328C62.706 113.274 54.7261 120.575 47.614 128.053C40.6966 135.331 32.4435 145.371 24.4671 156.2L23.2574 157.842L22.8868 157.593C22.3721 157.246 21.4751 156.402 20.5139 155.363C19.7238 154.515 19.6999 154.484 19.9259 154.259C20.0442 154.128 21.3434 152.953 22.7987 151.657C34.7472 141.015 46.4209 128.893 54.3771 118.894C57.5504 114.912 61.5629 109.039 63.2639 105.89L63.6976 105.112L65.2847 106.376C66.1623 107.072 67.3108 107.966 67.8284 108.375ZM14.9418 153.375C17.3456 156.937 21.4381 161.123 25.4365 164.115C26.9247 165.238 30.3501 167.392 30.6467 167.396C30.7191 167.4 30.7463 167.448 30.7045 167.51C30.6696 167.562 30.3102 167.652 29.8993 167.707C28.9118 167.841 28.5199 167.667 25.7775 165.942C24.5419 165.156 22.091 163.642 20.3368 162.582C14.9538 159.335 12.9646 157.891 12.232 156.735C11.4554 155.489 11.5619 154.22 12.6783 151.716C12.91 151.194 13.1414 150.717 13.1833 150.655C13.2391 150.572 13.4336 150.839 13.6782 151.32C13.8956 151.752 14.4678 152.68 14.9418 153.375ZM28.8461 172.271C23.6843 175.141 20.159 174.29 10.5655 167.833L7.71425 165.914L7.95392 163.936C8.10385 162.846 8.2081 161.425 8.20273 160.788C8.20433 160.141 8.22216 159.626 8.24275 159.64C8.26333 159.654 8.42958 160.007 8.62636 160.426C9.3116 161.896 10.6736 163.717 12.2582 165.296C13.4631 166.483 16.65 168.704 18.3954 169.577C20.8829 170.814 23.3571 171.56 25.7318 171.788C27.1035 171.927 28.7596 171.867 29.5236 171.643C29.8036 171.56 30.0557 171.519 30.0521 171.546C30.0657 171.57 29.5284 171.902 28.8461 172.271ZM24.8423 180.109C24.5716 180.333 23.7525 180.973 22.9927 181.546L21.6324 182.589L20.1195 181.993C19.277 181.667 16.3712 180.54 13.6683 179.489C5.21572 176.226 5.17455 176.198 5.43917 174.116C5.49782 173.674 5.56275 173.311 5.59729 173.304C5.63184 173.297 5.93662 173.577 6.27194 173.923C6.62452 174.266 7.45759 174.917 8.12998 175.385C10.271 176.826 12.7463 177.859 16.4809 178.866C19.854 179.765 22.1593 180.051 24.3791 179.797C24.8694 179.735 25.2836 179.698 25.2939 179.705C25.3042 179.712 25.1062 179.895 24.8423 180.109Z" fill="#35434F"/>
<path fill-rule="evenodd" clip-rule="evenodd" d="M65.0089 7.93815C66.8592 10.0627 68.4413 12.5393 69.7888 15.1692C69.2405 12.9159 68.6148 10.8994 67.9095 9.24783C67.3721 7.98938 66.8176 7.01277 66.2663 6.31968C65.7108 5.62146 65.2444 5.31734 64.9045 5.2047C64.2163 4.97665 63.6977 4.85763 63.3198 4.80652C63.4044 5.08314 63.5423 5.43571 63.7497 5.85806C64.097 6.56545 64.5562 7.30344 65.0089 7.93815ZM61.4751 0.990422C62.8016 0.550233 64.4364 0.835687 66.1627 1.40774C67.4877 1.84678 68.5501 2.76532 69.3966 3.82955C70.2473 4.89891 70.9679 6.22454 71.5882 7.67691C72.828 10.5802 73.7828 14.2694 74.5184 18.149C75.9934 25.9274 76.6563 34.8506 76.8183 40.699L72.8258 40.9186C72.5549 37.6313 71.6729 32.0871 69.9108 26.2966C68.1401 20.4777 65.5394 14.6077 61.9365 10.5011L61.8737 10.4296L61.818 10.3524C61.2493 9.56421 60.6409 8.60231 60.1591 7.62088C59.7017 6.68926 59.2519 5.5302 59.212 4.40861C59.1911 3.82402 59.2763 3.11121 59.6643 2.43798C60.077 1.72207 60.7239 1.23969 61.4751 0.990422Z" fill="#35434F"/>
<path fill-rule="evenodd" clip-rule="evenodd" d="M130.19 34.5207C125.437 33.4435 121.02 34.6168 117.293 36.6623C118.02 35.7243 118.762 34.8304 119.508 34.0037C121.611 31.6751 123.592 30.0676 125.279 29.388C126.094 29.0598 126.753 28.9839 127.288 29.0673C127.8 29.1471 128.351 29.3955 128.941 29.9874C130.582 31.6329 131.416 32.8122 131.789 33.5978C131.953 33.9442 132.002 34.1555 132.015 34.2666C131.954 34.3 131.848 34.3475 131.673 34.3956C131.273 34.5051 130.742 34.5483 130.19 34.5207ZM132.015 34.366C132.016 34.3663 132.017 34.3597 132.018 34.3452C132.015 34.3584 132.014 34.3657 132.015 34.366ZM135.404 31.8855C134.75 30.5064 133.556 28.9507 131.774 27.1634C130.653 26.0389 129.348 25.3402 127.904 25.115C126.483 24.8934 125.084 25.1544 123.785 25.6775C121.245 26.7005 118.77 28.8534 116.54 31.3228C112.036 36.3099 107.854 43.3614 105.376 48.3067L108.87 50.2467C110.368 47.7974 113.265 44.2189 116.98 41.5774C120.693 38.9373 124.98 37.3926 129.438 38.4524L129.595 38.4897L129.756 38.5014C130.655 38.5663 131.728 38.5281 132.731 38.2532C133.698 37.9879 134.934 37.4029 135.599 36.1142C136.294 34.769 136.059 33.2688 135.404 31.8855Z" fill="#35434F"/>
<path fill-rule="evenodd" clip-rule="evenodd" d="M184.966 73.501C179.315 71.4007 172.856 70.6424 166.529 70.6452C167.187 70.5036 167.842 70.3679 168.492 70.2389C173.597 69.2262 178.325 68.6441 182.091 68.7552C186.014 68.871 188.243 69.7237 189.158 70.87C190.522 72.5778 190.876 73.5325 190.935 73.9264C190.915 73.9347 190.893 73.9437 190.867 73.9532C190.402 74.1247 189.539 74.205 188.337 74.1031C187.224 74.0087 186.022 73.7771 184.966 73.501ZM191.045 73.8675C191.045 73.8671 191.045 73.8675 191.045 73.8675ZM194.938 73.8041C194.853 72.144 193.847 70.3319 192.285 68.3745C190.166 65.721 186.252 64.8762 182.209 64.7569C178.007 64.633 172.942 65.2783 167.714 66.3154C157.238 68.3936 145.714 72.1267 138.293 74.9308L139.6 78.7094C143.914 77.3518 151.372 75.6331 159.576 74.9474C167.811 74.2592 176.586 74.6306 183.658 77.2821L183.75 77.3167L183.845 77.3421C185.092 77.674 186.568 77.9675 187.999 78.0888C189.373 78.2053 190.948 78.1864 192.25 77.7064C192.928 77.4568 193.65 77.0388 194.189 76.3342C194.752 75.5978 194.985 74.717 194.938 73.8041Z" fill="#35434F"/>
</svg>
