<svg width="216" height="214" viewBox="0 0 216 214" fill="none" xmlns="http://www.w3.org/2000/svg">
<path d="M133.506 63.8601C128.327 60.9323 123.548 59.0113 115.809 56.7105C101.641 52.494 90.4323 51.9262 81.8166 54.972C77.3409 56.5553 73.4916 59.208 70.0499 63.0994C69.0267 64.264 66.2419 68.4017 65.4085 69.9954C62.6734 75.2815 60.5945 81.3257 58.5302 89.926C57.6388 93.6504 57.1019 96.1369 55.6318 103.299C52.4647 118.826 50.8876 125.103 48.4294 132.022C46.3098 137.993 44.2104 142.246 41.1498 146.816C40.1377 148.319 39.3417 149.546 39.366 149.532C39.4005 149.526 39.8451 149.132 40.3661 148.669C45.9901 143.579 50.0018 137.374 53.431 128.457C55.776 122.351 57.3701 116.538 60.4477 102.743C63.5929 88.6927 65.2095 83.0908 67.7509 77.4483C69.1126 74.4472 69.8506 73.1508 71.6502 70.6103C74.1824 67.0258 76.1388 65.1634 79.493 63.202C84.0149 60.55 89.3563 59.4137 95.9143 59.7142C98.2658 59.8202 102.945 60.4682 105.565 61.0414C112.163 62.4834 120.398 65.269 125.8 67.865C128.82 69.3103 132.483 71.6245 134.546 73.3594C139.082 77.1964 141.768 81.7613 142.324 86.5802C142.789 90.5999 141.934 94.8916 139.76 99.4553C133.921 111.708 117.813 125.065 99.9432 132.46C98.9224 132.888 95.8847 134.068 93.2106 135.085C82.9357 139.018 79.9488 140.323 76.2412 142.498C73.5558 144.066 71.2755 145.876 69.196 148.033C68.5248 148.741 67.9043 149.574 66.5084 151.648C64.5788 154.493 63.8614 155.803 62.6841 158.597C62.3852 159.33 62.1219 159.921 62.1116 159.914C62.1013 159.907 61.9207 159.62 61.7096 159.267C61.2908 158.578 60.4544 157.91 60.2082 158.076C60.1388 158.134 59.9236 158.743 59.7596 159.431C59.3646 160.973 58.9209 161.699 58.0442 162.224C56.3807 163.229 53.3616 162.915 49.8486 161.379C49.2126 161.102 47.9043 160.357 46.7408 159.619C44.8222 158.403 44.7193 158.334 44.8449 158.147C45.1241 157.732 54.3882 148.523 59.7057 143.378C73.1665 130.334 83.2811 121.306 92.054 114.493L94.9273 112.268L95.5938 112.611C102.316 116.156 108.24 116.844 112.093 114.54C113.462 113.729 114.154 113.034 115.219 111.43C117.491 108.032 118.361 103.495 117.156 101.419C116.724 100.661 115.674 99.954 114.675 99.749C112.23 99.2485 108.247 100.033 103.41 101.976C101.687 102.669 98.1941 104.281 97.2137 104.827L96.7114 105.107L95.0388 104.192C94.0771 103.665 92.0898 102.418 90.3502 101.247L87.3342 99.2172L87.7108 97.8133C89.3262 91.9243 88.0583 87.7861 83.8803 85.2605C82.4213 84.3839 81.4964 84.0026 79.5483 83.4749C76.8636 82.7528 74.7748 82.5674 73.3235 82.9015C72.2247 83.1564 71.7742 83.4258 71.2893 84.124C70.274 85.6104 70.7993 88.1186 72.879 91.673C74.3732 94.2306 77.0166 97.5918 79.8428 100.504L80.5682 101.248L80.1486 102.427C78.7335 106.507 76.4864 110.69 72.5849 116.487C67.9994 123.3 62.0329 130.721 53.7031 139.986C50.2375 143.846 40.6933 154.027 40.5205 154.061C40.3823 154.089 39.6086 152.905 39.2357 152.082C38.4658 150.403 38.3719 148.743 38.9845 147.588C39.163 147.256 39.2963 146.969 39.286 146.962C39.2757 146.955 38.8696 146.848 38.3877 146.719C36.326 146.161 34.7423 146.225 34.0957 146.874C33.8176 147.154 33.7401 147.358 33.6767 147.963L33.5847 148.7L32.8877 149.18C31.3029 150.268 29.8344 151.917 29.2513 153.272C29.0897 153.645 28.6023 154.658 28.1473 155.512C26.4453 158.797 24.8894 162.797 24.7007 164.433C24.6751 164.627 24.3711 165.567 24.0292 166.497C22.2275 171.508 21.6474 175.125 22.1758 178.118C23.2132 183.954 28.5278 187.124 38.9504 188.127C43.3069 188.543 43.8662 188.467 45.3033 187.31C48.3265 184.885 51.302 180.619 51.9725 177.801C52.1296 177.123 52.1435 177.102 52.8277 176.508C54.5398 175.009 56.3259 172.444 57.3277 170.044L57.8231 168.886L58.618 168.683C59.0535 168.569 59.68 168.283 60.0269 168.034C61.3276 167.101 62.3688 164.954 62.4706 162.958L62.5119 162.097L64.2901 159.211C68.7446 151.948 72.538 148.067 77.8887 145.295C80.9328 143.728 83.5725 142.717 93.8438 139.233C101.698 136.564 102.722 136.198 105.521 135.039C117.044 130.273 127.581 123.307 135.345 115.348C138.349 112.262 139.763 110.517 142.168 106.967C144.387 103.669 144.845 102.878 146.172 99.9285C150.957 89.2416 149.684 79.0434 142.586 71.1466C140.695 69.0452 139.16 67.7259 136.439 65.8346C135.125 64.9202 133.808 64.0334 133.506 63.8601ZM110.674 105.539C110.614 105.694 110.373 106.12 110.121 106.493C108.977 108.194 106.853 108.572 103.283 107.676C102.784 107.551 102.384 107.433 102.378 107.399C102.358 107.295 104.463 106.256 105.695 105.759C107.653 104.982 109.894 104.698 110.591 105.151C110.683 105.214 110.716 105.387 110.674 105.539ZM79.6508 90.6558C79.9446 91.0192 80.3432 91.6492 80.5297 92.0609C80.8994 92.8672 81.3442 94.2063 81.2336 94.2373C81.1299 94.258 79.7339 92.8211 78.9787 91.9211C78.1962 90.9726 77.3548 89.6227 77.4525 89.4776C77.4874 89.4257 77.7532 89.4087 78.0461 89.4401C78.6147 89.5064 78.8033 89.6484 79.6508 90.6558ZM88.8285 108.375L89.7748 109.102L87.9924 110.328C83.7061 113.274 75.7262 120.575 68.6141 128.053C61.6968 135.331 53.4436 145.371 45.4672 156.2L44.2575 157.842L43.8869 157.593C43.3723 157.246 42.4752 156.402 41.5141 155.363C40.7239 154.515 40.7 154.484 40.926 154.259C41.0443 154.128 42.3435 152.953 43.7988 151.657C55.7473 141.015 67.421 128.893 75.3772 118.894C78.5505 114.912 82.563 109.039 84.264 105.89L84.6978 105.112L86.2849 106.376C87.1624 107.072 88.3109 107.966 88.8285 108.375ZM35.9419 153.375C38.3457 156.937 42.4383 161.123 46.4366 164.115C47.9248 165.238 51.3502 167.392 51.6468 167.396C51.7193 167.4 51.7465 167.448 51.7046 167.51C51.6697 167.562 51.3103 167.652 50.8994 167.707C49.9119 167.841 49.52 167.667 46.7776 165.942C45.542 165.156 43.0911 163.642 41.3369 162.582C35.9539 159.335 33.9647 157.891 33.2322 156.735C32.4555 155.489 32.562 154.22 33.6784 151.716C33.9101 151.194 34.1415 150.717 34.1834 150.655C34.2392 150.572 34.4337 150.839 34.6783 151.32C34.8957 151.752 35.4679 152.68 35.9419 153.375ZM49.8462 172.271C44.6844 175.141 41.1591 174.29 31.5656 167.833L28.7144 165.914L28.954 163.936C29.104 162.846 29.2082 161.425 29.2028 160.788C29.2045 160.141 29.2223 159.626 29.2429 159.64C29.2635 159.654 29.4297 160.007 29.6265 160.426C30.3117 161.896 31.6737 163.717 33.2583 165.296C34.4632 166.483 37.6501 168.704 39.3955 169.577C41.883 170.814 44.3572 171.56 46.7319 171.788C48.1036 171.927 49.7597 171.867 50.5237 171.643C50.8037 171.56 51.0558 171.519 51.0522 171.546C51.0658 171.57 50.5286 171.902 49.8462 172.271ZM45.8425 180.109C45.5717 180.334 44.7527 180.973 43.9928 181.546L42.6326 182.589L41.1196 181.993C40.2771 181.667 37.3713 180.54 34.6685 179.489C26.2158 176.226 26.1747 176.198 26.4393 174.116C26.4979 173.674 26.5629 173.311 26.5974 173.304C26.632 173.297 26.9367 173.577 27.2721 173.923C27.6246 174.266 28.4577 174.917 29.1301 175.385C31.2711 176.826 33.7465 177.859 37.481 178.866C40.8542 179.765 43.1594 180.051 45.3793 179.797C45.8695 179.735 46.2837 179.698 46.294 179.705C46.3043 179.712 46.1063 179.895 45.8425 180.109Z" fill="#35434F"/>
<path d="M84.4399 9.18207C92.1897 18.0153 95.2551 33.9107 95.8191 40.7543C95.4987 29.1911 93.193 5.51292 86.5337 3.30619C79.8743 1.09947 82.3631 6.30397 84.4399 9.18207Z" stroke="#35434F" stroke-width="4"/>
<path d="M150.9 36.5066C140.447 34.0215 131.387 43.9353 128.164 49.2028C133.043 39.4662 144.514 21.7096 151.358 28.5754C158.202 35.4411 153.905 36.7236 150.9 36.5066Z" stroke="#35434F" stroke-width="4"/>
<path d="M205.36 75.4094C190.414 69.8055 168.893 74.0026 160 76.8017C174.713 71.242 205.655 62.0226 211.722 69.6223C217.788 77.222 210.008 76.6469 205.36 75.4094Z" stroke="#35434F" stroke-width="4"/>
</svg>
