<svg width="28" height="23" viewBox="0 0 28 23" fill="none" xmlns="http://www.w3.org/2000/svg">
<path fill-rule="evenodd" clip-rule="evenodd" d="M3.94347 5.87089C2.68515 7.65473 2.35088 9.84261 2.33395 11.3519C2.29724 14.5942 3.72778 16.8492 5.52245 18.3445C7.35211 19.869 9.53259 20.5757 10.8404 20.6693L10.8429 20.6695C13.5921 20.8734 15.6259 19.9466 17.0383 18.7562C17.7419 18.1632 18.2855 17.5095 18.6809 16.9034C16.662 17.1139 14.8557 16.6542 13.3856 15.9246C11.4678 14.9729 10.0639 13.5337 9.45721 12.4316C7.91357 9.62733 8.01456 6.78155 8.57512 4.66566C8.75827 3.97434 8.99286 3.35051 9.24282 2.81878C6.53841 3.23863 4.92759 4.47576 3.94347 5.87089ZM2.30916 4.71805C3.93744 2.40974 6.74862 0.666748 11.3333 0.666748C11.8816 0.666748 12.3277 1.1084 12.3332 1.65676C12.3374 2.07852 12.0798 2.44237 11.7111 2.59288C11.6298 2.68138 11.5073 2.84249 11.3627 3.08383C11.0704 3.57149 10.7419 4.29639 10.5084 5.17784C10.0418 6.93904 9.97669 9.2279 11.2093 11.4671C11.5963 12.1701 12.6768 13.3401 14.2747 14.1331C15.8388 14.9094 17.842 15.2969 20.1136 14.5637C20.4592 14.4522 20.8382 14.5368 21.1035 14.7847C21.3689 15.0327 21.4789 15.405 21.391 15.7574C21.0826 16.9939 20.0639 18.8218 18.3272 20.2855C16.5589 21.7759 14.0205 22.9102 10.6967 22.6641C8.96793 22.5401 6.39084 21.6713 4.24221 19.8811C2.05825 18.0614 0.289585 15.262 0.334073 11.3294M2.30916 4.71805C0.724191 6.96496 0.353329 9.61408 0.334073 11.3294ZM20.1529 1.66675C20.532 1.66675 20.8785 1.88112 21.0477 2.22035L21.6935 3.51485L22.9403 3.74917C23.297 3.81619 23.5893 4.07117 23.7042 4.41539C23.8191 4.75962 23.7385 5.13907 23.4936 5.40685L22.6329 6.34785L22.8729 7.71074C22.9384 8.08295 22.7885 8.4603 22.4855 8.68608C22.1824 8.91186 21.7779 8.94748 21.44 8.77816L20.1396 8.12648L18.7359 8.78858C18.3979 8.94798 17.9993 8.90567 17.7024 8.6789C17.4054 8.45213 17.2596 8.07872 17.3244 7.71074L17.5597 6.37472L16.6253 5.43826C16.361 5.17328 16.2667 4.78284 16.3811 4.42642C16.4954 4.07001 16.7993 3.80731 17.1685 3.74563L18.6179 3.5035L19.2581 2.22035C19.4273 1.88112 19.7738 1.66675 20.1529 1.66675ZM20.1529 4.90318C20.0043 5.16242 19.7468 5.34265 19.4501 5.39221L19.4057 5.39962C19.5799 5.61045 19.6605 5.88421 19.6273 6.1568L19.7263 6.11013C19.9919 5.98484 20.2986 5.98293 20.565 6.10342C20.5473 5.84189 20.6332 5.58253 20.806 5.3826C20.53 5.32202 20.2929 5.14757 20.1529 4.90318ZM24.4301 8.66741C24.8091 8.68118 25.1478 8.90826 25.3045 9.25373L25.6265 9.9639L26.4021 10.0935C26.7818 10.1569 27.0913 10.4326 27.1981 10.8024C27.3049 11.1721 27.19 11.5704 26.9026 11.8264L26.3608 12.3091L26.5646 13.262C26.6463 13.6443 26.4978 14.0392 26.1843 14.2729C25.8709 14.5065 25.45 14.5361 25.107 14.3485L24.3938 13.9586L23.6805 14.3485C23.3375 14.5361 22.9166 14.5065 22.6032 14.2729C22.2897 14.0392 22.1412 13.6443 22.2229 13.262L22.4126 12.3751L21.7442 11.8879C21.417 11.6494 21.2659 11.2371 21.3615 10.8436C21.4572 10.4501 21.7807 10.1532 22.1809 10.0915L23.1014 9.94953L23.5154 9.18874C23.6967 8.85555 24.051 8.65364 24.4301 8.66741Z" fill="#35434F"/>
</svg>
