<svg width="27" height="23" viewBox="0 0 27 23" fill="none" xmlns="http://www.w3.org/2000/svg">
<path d="M24.9281 11.2826L25.2534 12.8043L24.0605 12.1522L22.8676 12.8043L23.1929 11.2826L22 10.413L23.4098 10.1957L24.0605 9L24.6027 10.1957L25.9041 10.413L24.9281 11.2826Z" stroke="#35434F" stroke-width="2" stroke-linejoin="round"/>
<path d="M21.2295 5.36957L21.5548 7.21739L19.8196 6.34783L17.976 7.21739L18.3014 5.36957L17 4.06522L18.9521 3.73913L19.8196 2L20.6872 3.73913L22.4224 4.06522L21.2295 5.36957Z" stroke="#35434F" stroke-width="2" stroke-linejoin="round"/>
<path d="M10.4357 11.5435C7.65947 6.5 10.2188 2.41304 11.8455 1C3.25652 1 1.03693 7.44928 1.00076 10.6739C0.919531 17.8489 7.39918 20.7826 10.4357 21C16.5095 21.4505 19.5815 16.8776 20.0875 14.8486C14.9688 16.5008 11.4294 13.3486 10.4357 11.5435Z" stroke="#35434F" stroke-width="2" stroke-linejoin="round"/>
</svg>
