<svg width="25" height="25" viewBox="0 0 25 25" fill="none" xmlns="http://www.w3.org/2000/svg">
<path d="M12.3333 6.20521C8.77075 6.20521 5.87171 9.10425 5.87171 12.6667C5.87171 16.2292 8.77075 19.1283 12.3333 19.1283C15.8958 19.1283 18.7948 16.2292 18.7948 12.6667C18.7948 9.10425 15.8958 6.20521 12.3333 6.20521ZM12.3333 17.2821C9.78394 17.2821 7.71787 15.2161 7.71787 12.6667C7.71787 10.1174 9.78394 8.05136 12.3333 8.05136C14.8826 8.05136 16.9486 10.1174 16.9486 12.6667C16.9486 15.2161 14.8826 17.2821 12.3333 17.2821ZM12.3333 4.35906C12.8428 4.35906 13.2563 3.94557 13.2563 3.43598V1.58982C13.2563 1.08023 12.8428 0.666748 12.3333 0.666748C11.8237 0.666748 11.4102 1.08023 11.4102 1.58982V3.43598C11.4102 3.94557 11.8237 4.35906 12.3333 4.35906ZM12.3333 20.9744C11.8237 20.9744 11.4102 21.3879 11.4102 21.8975V23.7437C11.4102 24.2533 11.8237 24.6667 12.3333 24.6667C12.8428 24.6667 13.2563 24.2533 13.2563 23.7437V21.8975C13.2563 21.3879 12.8428 20.9744 12.3333 20.9744ZM19.5124 6.79177L20.8177 5.48648C21.1782 5.1259 21.1782 4.54177 20.8177 4.18119C20.4571 3.82061 19.8729 3.82061 19.5124 4.18119L18.2071 5.48648C17.8465 5.84706 17.8465 6.43119 18.2071 6.79177C18.5677 7.15234 19.1518 7.15234 19.5124 6.79177ZM5.15414 18.5418L3.84885 19.8471C3.48827 20.2076 3.48827 20.7917 3.84885 21.1523C4.20942 21.5129 4.79356 21.5129 5.15414 21.1523L6.45942 19.8471C6.82 19.4853 6.82 18.9023 6.45942 18.5418C6.09891 18.1812 5.51471 18.1799 5.15414 18.5418ZM4.02556 12.6667C4.02556 12.1572 3.61208 11.7437 3.10248 11.7437H1.25633C0.746733 11.7437 0.333252 12.1572 0.333252 12.6667C0.333252 13.1763 0.746733 13.5898 1.25633 13.5898H3.10248C3.61208 13.5898 4.02556 13.1763 4.02556 12.6667ZM23.4102 11.7437H21.564C21.0544 11.7437 20.6409 12.1572 20.6409 12.6667C20.6409 13.1763 21.0544 13.5898 21.564 13.5898H23.4102C23.9198 13.5898 24.3333 13.1763 24.3333 12.6667C24.3333 12.1572 23.9198 11.7437 23.4102 11.7437ZM5.15293 6.79177C5.51356 7.15234 6.09769 7.15234 6.45821 6.79177C6.81885 6.43119 6.81885 5.84706 6.45821 5.48648L5.15293 4.18119C4.79235 3.82061 4.20827 3.82061 3.84764 4.18119C3.48706 4.54177 3.48706 5.1259 3.84764 5.48648L5.15293 6.79177ZM19.5136 18.5405C19.1518 18.1799 18.5688 18.1799 18.2083 18.5405C17.8477 18.9011 17.8465 19.4852 18.2083 19.8458L19.5136 21.1511C19.8741 21.5117 20.4582 21.5117 20.8188 21.1511C21.1794 20.7905 21.1794 20.2064 20.8188 19.8458L19.5136 18.5405Z" fill="#35434F"/>
</svg>
