<svg width="233" height="70" viewBox="0 0 233 70" fill="none" xmlns="http://www.w3.org/2000/svg">
<path d="M51.0938 10.9954C49.7939 4.109 40.5095 -1.50209 37.5385 8.18982C35.5982 14.5191 39.2097 28.2877 55.5504 44.4069C60.2044 48.9978 65.0205 52.0584 55.179 60.7301C51.0938 63.7907 44.2233 69.1467 38.2812 66.0861C35.8054 64.7259 32.7105 59.5058 40.1381 49.5079C45.2136 43.2167 59.8212 32.4195 70.7769 24.2579C76.3476 20.4322 81.584 15.5862 79.5043 29.869C78.7616 35.9902 77.8899 42.1569 77.4617 49.5079C77.0904 55.8841 78.0188 62.5664 89.1602 47.4675C95.3708 39.0508 106.058 25.7882 123.698 16.0963C130.012 12.6277 135.824 14.0559 131.126 28.0837C129.393 33.5248 126.038 45.6821 126.484 50.7831C128.588 47.0424 135.36 39.0508 145.61 37.0104C150.562 35.9052 159.351 37.0104 154.894 50.273C152.728 55.4591 153.743 62.5664 175.134 49.5079" stroke="#35434F" stroke-width="6" stroke-linecap="round" stroke-linejoin="round"/>
<path d="M200.574 12.1818L188.69 56.0504" stroke="#35434F" stroke-width="6" stroke-linecap="round" stroke-linejoin="round"/>
<path d="M22.126 18.9018L3 33.9497L21.1976 49.2527" stroke="#35434F" stroke-width="6" stroke-linecap="round" stroke-linejoin="round"/>
<path d="M210.573 49.1641L229.699 34.1161L211.501 18.8131" stroke="#35434F" stroke-width="6" stroke-linecap="round" stroke-linejoin="round"/>
</svg>
