<svg width="176" height="52" viewBox="0 0 176 52" fill="none" xmlns="http://www.w3.org/2000/svg">
<path d="M16.532 14.6184L2 25.9044L15.8266 37.3816M37.5118 7.99654C36.5242 2.83175 29.4699 -1.37657 27.2125 5.89236C25.8905 10.149 27.9603 18.8918 37.3539 29.3692M37.3539 29.3692C38.436 30.5763 39.6154 31.8063 40.898 33.0552C44.4341 36.4983 48.0935 38.7938 40.6158 45.2976C37.5118 47.593 32.2916 51.6101 27.7768 49.3146C25.8956 48.2944 23.5442 44.3794 29.1877 36.8809C30.8413 34.8576 33.8267 32.213 37.3539 29.3692ZM37.3539 29.3692C42.0524 25.5812 47.7124 21.4399 52.4672 17.9435C56.6998 15.0741 60.6785 11.4397 59.0983 22.1518C58.534 26.7427 57.8717 31.3677 57.5463 36.8809C57.2642 41.6631 57.9696 46.6748 66.4349 35.3506C71.1537 29.0381 79.2739 19.0912 92.6772 11.8223C97.4742 9.22075 101.89 10.292 98.3207 20.8128C97.0039 24.8936 94.4549 34.0116 94.7935 37.8374C96.3925 35.0318 101.538 29.0381 109.326 27.5078C113.088 26.6789 119.766 27.5078 116.38 37.4548C114.734 41.3443 115.505 46.6748 131.759 36.8809M149.906 9.54928L140.876 42.4507M159.024 37.3816L173.556 26.0956L159.729 14.6184" stroke="#FBFBFC" stroke-width="4" stroke-linecap="round" stroke-linejoin="round"/>
</svg>
